<svg viewBox="0 0 258 78" fill="none" xmlns="http://www.w3.org/2000/svg">
<path d="M44.2091 0.871512V8.17039C40.7915 3.37709 33.9561 0 26.5696 0C9.59151 0 0 11.9832 0 28.324C0 44.6648 9.59151 56.648 26.6798 56.648C34.5074 56.648 41.5632 53.4888 44.2091 48.8045V57.7374C44.2091 64.3827 39.5788 69.176 33.1844 69.176H7.49681V78H34.2869C46.4141 78 54.9031 69.9385 54.9031 58.3911V0.871512H44.2091ZM27.8925 47.3883C17.6396 47.3883 10.9145 39.8715 10.9145 28.324C10.9145 16.7765 17.6396 9.25978 27.8925 9.25978C38.2558 9.25978 44.9809 16.7765 44.9809 28.324C44.9809 39.8715 38.2558 47.3883 27.8925 47.3883Z" fill="black"/>
<path d="M101.159 10.0223V0.871512H94.4336C86.6061 0.871512 82.1962 4.13966 79.6605 11.4385V0.871512H68.9665V55.7765H79.6605V30.9385C79.6605 18.9553 82.9679 10.0223 93.1107 10.0223H101.159Z" fill="black"/>
<path d="M129.985 0C116.865 0 106.943 8.06145 106.061 18.8464H115.984C116.314 13.2905 121.937 8.4972 129.654 8.4972C138.253 8.4972 143.104 13.0726 143.104 19.7179C143.104 21.6788 141.892 22.986 139.356 22.986H127.78C114.661 22.986 106.172 29.5223 106.172 40.0894C106.172 49.8939 113.668 56.648 125.024 56.648C133.403 56.648 140.458 52.7263 143.104 46.8436V55.7765H153.798V20.3715C153.798 8.17039 144.317 0 129.985 0ZM127.118 48.2598C120.945 48.2598 116.755 44.8827 116.755 39.8715C116.755 34.0978 121.496 30.3939 128.772 30.3939H143.104V31.7011C143.104 41.8324 137.261 48.2598 127.118 48.2598Z" fill="black"/>
<path d="M185.7 56.648C198.268 56.648 206.537 50.2207 206.537 40.1983C206.537 15.1425 174.786 29.0866 174.786 15.4693C174.786 11.2207 178.644 8.38826 184.377 8.38826C189.118 8.38826 195.292 10.8939 196.063 17.2123H206.096C205.545 6.86313 196.945 0 184.377 0C172.801 0 164.643 6.31843 164.643 15.7961C164.643 39.2179 196.174 25.8184 196.174 40.4162C196.174 44.4469 192.095 47.824 185.7 47.824C178.534 47.824 173.904 44.229 173.242 37.9106H163.21C163.982 49.4581 172.691 56.648 185.7 56.648Z" fill="black"/>
<path d="M237.163 56.648C249.731 56.648 258 50.2207 258 40.1983C258 15.1425 226.249 29.0866 226.249 15.4693C226.249 11.2207 230.107 8.38826 235.84 8.38826C240.581 8.38826 246.755 10.8939 247.527 17.2123H257.559C257.008 6.86313 248.408 0 235.84 0C224.264 0 216.106 6.31843 216.106 15.7961C216.106 39.2179 247.637 25.8184 247.637 40.4162C247.637 44.4469 243.558 47.824 237.163 47.824C229.997 47.824 225.367 44.229 224.705 37.9106H214.673C215.445 49.4581 224.154 56.648 237.163 56.648Z" fill="black"/>
</svg>
