<svg viewBox="0 0 230 66" fill="none" xmlns="http://www.w3.org/2000/svg">
<path d="M56.3518 0C53.2248 0 50.6897 2.53384 50.6897 5.65951C50.6897 6.1891 50.7625 6.7017 50.8986 7.18786C54.1004 5.86666 57.753 5.09262 61.9789 5.02599C61.6638 2.19852 59.2647 0 56.3518 0Z" fill="black"/>
<path d="M62 6.06026C57.8972 6.1244 54.3625 6.87393 51.2682 8.15448C52.1908 10.029 54.1206 11.319 56.3518 11.319C59.3441 11.319 61.7943 8.99891 62 6.06026Z" fill="black"/>
<path d="M49.5231 7.80177V5.75284C43.2661 5.75284 38.1937 10.8229 38.1937 17.0771V17.4599C39.125 16.2382 40.1075 15.0742 41.1531 13.9838C43.5622 11.4714 46.3053 9.34936 49.5231 7.80177Z" fill="black"/>
<path d="M38.1937 19.1991C39.3439 17.5963 40.5705 16.0861 41.8998 14.6997C44.1136 12.391 46.6131 10.4256 49.5231 8.95507V44.4456C49.5231 50.6999 44.4507 55.7699 38.1937 55.7699V19.1991Z" fill="black"/>
<path d="M35.0039 22.1428C32.989 19.0082 29.4698 16.9317 25.4654 16.9317V40.3562C26.507 38.3658 27.5198 36.3211 28.5392 34.2632L28.5413 34.2591C28.67 33.9992 28.7988 33.7392 28.9278 33.479C30.8391 29.6241 32.7879 25.7435 35.0039 22.1428Z" fill="black"/>
<path d="M25.4654 42.558C26.8394 40.0261 28.1402 37.3998 29.4396 34.7761C29.5779 34.4969 29.7163 34.2176 29.8546 33.9385C31.6857 30.2453 33.5303 26.5755 35.59 23.1684C36.3608 24.698 36.7949 26.4263 36.7949 28.2558V65.9999C30.5378 65.9999 25.4654 60.93 25.4654 54.6758V42.558Z" fill="black"/>
<path d="M24.0666 42.9565V26.9036C17.8095 26.9036 12.7371 31.9735 12.7371 38.2277V56.9617C14.4348 55.7483 15.9733 54.3219 17.3934 52.7313C19.921 49.9003 22.0701 46.5537 24.0666 42.9565Z" fill="black"/>
<path d="M12.7371 58.22C14.7406 56.8736 16.5317 55.2497 18.1651 53.4203C20.3726 50.9478 22.2942 48.0966 24.0666 45.0511V51.0222C24.0666 57.2764 18.9942 62.3464 12.7371 62.3464V58.22Z" fill="black"/>
<path d="M10.759 58.2337C11.1292 57.1148 11.3295 55.9187 11.3295 54.6757V46.1432C5.07238 46.1432 0 51.2132 0 57.4674V61.3152C4.19706 61.0814 7.72044 59.9789 10.759 58.2337Z" fill="black"/>
<path d="M0 62.3512C3.8812 62.1425 7.21602 61.217 10.1335 59.7454C8.27266 63.4543 4.43375 66 0 66V62.3512Z" fill="black"/>
<path d="M100.731 10.0251V14.4232C98.6646 11.5349 94.5316 9.5 90.0653 9.5C79.7995 9.5 74 16.7207 74 26.567C74 36.4134 79.7995 43.6341 90.132 43.6341C94.8649 43.6341 99.1312 41.7304 100.731 38.9078V44.2905C100.731 48.2947 97.9313 51.183 94.065 51.183H78.533V56.5H94.7316C102.064 56.5 107.197 51.6425 107.197 44.6844V10.0251H100.731ZM90.8653 38.0545C84.6658 38.0545 80.5994 33.5251 80.5994 26.567C80.5994 19.6089 84.6658 15.0796 90.8653 15.0796C97.1314 15.0796 101.198 19.6089 101.198 26.567C101.198 33.5251 97.1314 38.0545 90.8653 38.0545Z" fill="black"/>
<path d="M135.166 15.5391V10.0251H131.099C126.366 10.0251 123.7 11.9944 122.167 16.3925V10.0251H115.701V43.1089H122.167V28.1425C122.167 20.9218 124.167 15.5391 130.299 15.5391H135.166Z" fill="black"/>
<path d="M152.596 9.5C144.663 9.5 138.663 14.3575 138.13 20.8561H144.13C144.33 17.5084 147.729 14.6201 152.396 14.6201C157.595 14.6201 160.528 17.3771 160.528 21.3813C160.528 22.5628 159.795 23.3506 158.262 23.3506H151.262C143.33 23.3506 138.197 27.2891 138.197 33.6564C138.197 39.5642 142.73 43.6341 149.596 43.6341C154.662 43.6341 158.928 41.2709 160.528 37.7263V43.1089H166.994V21.7751C166.994 14.4232 161.261 9.5 152.596 9.5ZM150.862 38.5796C147.129 38.5796 144.596 36.5447 144.596 33.5251C144.596 30.0461 147.463 27.8142 151.862 27.8142H160.528V28.602C160.528 34.7067 156.995 38.5796 150.862 38.5796Z" fill="black"/>
<path d="M186.284 43.6341C193.883 43.6341 198.883 39.7612 198.883 33.7221C198.883 18.6243 179.684 27.0265 179.684 18.8212C179.684 16.2612 182.018 14.5545 185.484 14.5545C188.35 14.5545 192.083 16.0642 192.55 19.8715H198.616C198.283 13.6355 193.083 9.5 185.484 9.5C178.485 9.5 173.552 13.3073 173.552 19.0182C173.552 33.1313 192.617 25.0573 192.617 33.8534C192.617 36.2821 190.15 38.317 186.284 38.317C181.951 38.317 179.151 36.1508 178.751 32.3436H172.685C173.152 39.3017 178.418 43.6341 186.284 43.6341Z" fill="black"/>
<path d="M217.401 43.6341C225 43.6341 230 39.7612 230 33.7221C230 18.6243 210.802 27.0265 210.802 18.8212C210.802 16.2612 213.135 14.5545 216.601 14.5545C219.468 14.5545 223.201 16.0642 223.667 19.8715H229.733C229.4 13.6355 224.2 9.5 216.601 9.5C209.602 9.5 204.669 13.3073 204.669 19.0182C204.669 33.1313 223.734 25.0573 223.734 33.8534C223.734 36.2821 221.267 38.317 217.401 38.317C213.068 38.317 210.268 36.1508 209.868 32.3436H203.802C204.269 39.3017 209.535 43.6341 217.401 43.6341Z" fill="black"/>
</svg>
