<svg viewBox="0 0 156 192" fill="none" xmlns="http://www.w3.org/2000/svg">
<path d="M121.343 0C115.997 0 111.663 4.33825 111.663 9.68977C111.663 10.5965 111.787 11.4741 112.02 12.3065C117.494 10.0444 123.739 8.71918 130.964 8.6051C130.425 3.76413 126.323 0 121.343 0Z" fill="black"/>
<path d="M131 10.3759C123.986 10.4857 117.942 11.769 112.652 13.9615C114.229 17.1709 117.529 19.3795 121.343 19.3795C126.459 19.3795 130.648 15.4072 131 10.3759Z" fill="black"/>
<path d="M109.669 13.3576V9.84957C98.9711 9.84957 90.2989 18.5301 90.2989 29.238V29.8934C91.8911 27.8017 93.5709 25.8089 95.3586 23.9419C99.4773 19.6404 104.167 16.0072 109.669 13.3576Z" fill="black"/>
<path d="M90.2989 32.8712C92.2654 30.127 94.3624 27.5413 96.6351 25.1677C100.42 21.2148 104.693 17.8499 109.669 15.3322V76.0963C109.669 86.8043 100.996 95.4848 90.2989 95.4848V32.8712Z" fill="black"/>
<path d="M84.8455 37.9111C81.4006 32.5444 75.3839 28.9891 68.5377 28.9891V69.0947C70.3183 65.6869 72.05 62.1861 73.7929 58.6628L73.7964 58.6557C74.0164 58.2108 74.2367 57.7656 74.4572 57.3202C77.7248 50.72 81.0568 44.0761 84.8455 37.9111Z" fill="black"/>
<path d="M68.5377 72.8645C70.8868 68.5295 73.1106 64.033 75.3323 59.5409C75.5687 59.0628 75.8052 58.5847 76.0418 58.1069C79.1723 51.7837 82.326 45.5004 85.8474 39.6671C87.1652 42.286 87.9074 45.245 87.9074 48.3774V113C77.2099 113 68.5377 104.319 68.5377 93.6115V72.8645Z" fill="black"/>
<path d="M66.1462 73.5467V46.0622C55.4485 46.0622 46.7763 54.7425 46.7763 65.4505V97.5253C49.6788 95.4478 52.3092 93.0057 54.7371 90.2824C59.0585 85.4354 62.7328 79.7056 66.1462 73.5467Z" fill="black"/>
<path d="M46.7763 99.6796C50.2016 97.3745 53.264 94.5942 56.0564 91.4621C59.8306 87.2287 63.1159 82.3471 66.1462 77.1329V87.3563C66.1462 98.0641 57.474 106.745 46.7763 106.745V99.6796Z" fill="black"/>
<path d="M43.3945 99.7031C44.0273 97.7875 44.3698 95.7395 44.3698 93.6115V79.0027C33.6721 79.0027 25 87.6832 25 98.3912V104.979C32.1756 104.579 38.1995 102.691 43.3945 99.7031Z" fill="black"/>
<path d="M25 106.753C31.6356 106.395 37.3371 104.811 42.325 102.291C39.1436 108.641 32.5803 113 25 113V106.753Z" fill="black"/>
<path d="M26.7311 145.525V149.923C24.6646 147.035 20.5316 145 16.0653 145C5.79952 145 0 152.221 0 162.067C0 171.913 5.79952 179.134 16.132 179.134C20.8649 179.134 25.1312 177.23 26.7311 174.408V179.791C26.7311 183.795 23.9313 186.683 20.065 186.683H4.53296V192H20.7316C28.0643 192 33.1972 187.142 33.1972 180.184V145.525H26.7311ZM16.8653 173.554C10.6658 173.554 6.59945 169.025 6.59945 162.067C6.59945 155.109 10.6658 150.58 16.8653 150.58C23.1314 150.58 27.1977 155.109 27.1977 162.067C27.1977 169.025 23.1314 173.554 16.8653 173.554Z" fill="black"/>
<path d="M61.1657 151.039V145.525H57.0994C52.3665 145.525 49.7 147.494 48.1668 151.892V145.525H41.7007V178.609H48.1668V163.642C48.1668 156.422 50.1666 151.039 56.2995 151.039H61.1657Z" fill="black"/>
<path d="M78.5955 145C70.6628 145 64.6634 149.858 64.1301 156.356H70.1296C70.3295 153.008 73.7293 150.12 78.3955 150.12C83.5951 150.12 86.5282 152.877 86.5282 156.881C86.5282 158.063 85.7949 158.851 84.2617 158.851H77.2623C69.3296 158.851 64.1967 162.789 64.1967 169.156C64.1967 175.064 68.7297 179.134 75.5958 179.134C80.662 179.134 84.9283 176.771 86.5282 173.226V178.609H92.9943V157.275C92.9943 149.923 87.2615 145 78.5955 145ZM76.8623 174.08C73.1293 174.08 70.5962 172.045 70.5962 169.025C70.5962 165.546 73.4626 163.314 77.8623 163.314H86.5282V164.102C86.5282 170.207 82.9952 174.08 76.8623 174.08Z" fill="black"/>
<path d="M112.284 179.134C119.883 179.134 124.883 175.261 124.883 169.222C124.883 154.124 105.684 162.527 105.684 154.321C105.684 151.761 108.018 150.054 111.484 150.054C114.35 150.054 118.083 151.564 118.55 155.372H124.616C124.283 149.135 119.083 145 111.484 145C104.485 145 99.5516 148.807 99.5516 154.518C99.5516 168.631 118.617 160.557 118.617 169.353C118.617 171.782 116.15 173.817 112.284 173.817C107.951 173.817 105.151 171.651 104.751 167.844H98.685C99.1516 174.802 104.418 179.134 112.284 179.134Z" fill="black"/>
<path d="M143.401 179.134C151 179.134 156 175.261 156 169.222C156 154.124 136.802 162.527 136.802 154.321C136.802 151.761 139.135 150.054 142.601 150.054C145.468 150.054 149.201 151.564 149.667 155.372H155.733C155.4 149.135 150.2 145 142.601 145C135.602 145 130.669 148.807 130.669 154.518C130.669 168.631 149.734 160.557 149.734 169.353C149.734 171.782 147.267 173.817 143.401 173.817C139.068 173.817 136.268 171.651 135.868 167.844H129.802C130.269 174.802 135.535 179.134 143.401 179.134Z" fill="black"/>
</svg>
